<svg width="72" height="72" viewBox="0 0 72 72" fill="none" xmlns="http://www.w3.org/2000/svg">
<g filter="url(#filter0_dd_17_46)">
<path d="M12 16C12 8.26801 18.268 2 26 2H46C53.732 2 60 8.26801 60 16V36C60 43.732 53.732 50 46 50H26C18.268 50 12 43.732 12 36V16Z" fill="url(#paint0_linear_17_46)" shape-rendering="crispEdges"/>
<path d="M43 25H29C27.8954 25 27 25.8954 27 27V34C27 35.1046 27.8954 36 29 36H43C44.1046 36 45 35.1046 45 34V27C45 25.8954 44.1046 25 43 25Z" stroke="white" stroke-width="2" stroke-linecap="round" stroke-linejoin="round"/>
<path d="M31 25V21C31 19.6739 31.5268 18.4021 32.4645 17.4645C33.4021 16.5268 34.6739 16 36 16C37.3261 16 38.5979 16.5268 39.5355 17.4645C40.4732 18.4021 41 19.6739 41 21V25" stroke="white" stroke-width="2" stroke-linecap="round" stroke-linejoin="round"/>
</g>
<defs>
<filter id="filter0_dd_17_46" x="0" y="0" width="72" height="72" filterUnits="userSpaceOnUse" color-interpolation-filters="sRGB">
<feFlood flood-opacity="0" result="BackgroundImageFix"/>
<feColorMatrix in="SourceAlpha" type="matrix" values="0 0 0 0 0 0 0 0 0 0 0 0 0 0 0 0 0 0 127 0" result="hardAlpha"/>
<feMorphology radius="4" operator="erode" in="SourceAlpha" result="effect1_dropShadow_17_46"/>
<feOffset dy="4"/>
<feGaussianBlur stdDeviation="3"/>
<feComposite in2="hardAlpha" operator="out"/>
<feColorMatrix type="matrix" values="0 0 0 0 0 0 0 0 0 0 0 0 0 0 0 0 0 0 0.1 0"/>
<feBlend mode="normal" in2="BackgroundImageFix" result="effect1_dropShadow_17_46"/>
<feColorMatrix in="SourceAlpha" type="matrix" values="0 0 0 0 0 0 0 0 0 0 0 0 0 0 0 0 0 0 127 0" result="hardAlpha"/>
<feMorphology radius="3" operator="erode" in="SourceAlpha" result="effect2_dropShadow_17_46"/>
<feOffset dy="10"/>
<feGaussianBlur stdDeviation="7.5"/>
<feComposite in2="hardAlpha" operator="out"/>
<feColorMatrix type="matrix" values="0 0 0 0 0 0 0 0 0 0 0 0 0 0 0 0 0 0 0.1 0"/>
<feBlend mode="normal" in2="effect1_dropShadow_17_46" result="effect2_dropShadow_17_46"/>
<feBlend mode="normal" in="SourceGraphic" in2="effect2_dropShadow_17_46" result="shape"/>
</filter>
<linearGradient id="paint0_linear_17_46" x1="12" y1="2" x2="60" y2="50" gradientUnits="userSpaceOnUse">
<stop stop-color="#155DFC"/>
<stop offset="1" stop-color="#9810FA"/>
</linearGradient>
</defs>
</svg>
