<svg xmlns="http://www.w3.org/2000/svg" viewBox="0 0 192 192">
  <rect width="192" height="192" rx="24" fill="#4c6ef5"/>
  <path d="M96 56V152" stroke="white" stroke-width="12" stroke-linecap="round" stroke-linejoin="round"/>
  <path d="M24 144C22.9391 144 21.9217 143.579 21.1716 142.828C20.4214 142.078 20 141.061 20 140V52C20 50.9391 20.4214 49.9217 21.1716 49.1716C21.9217 48.4214 22.9391 48 24 48H52C57.3043 48 62.3914 50.1071 66.1421 54.1421C69.8929 58.1771 72 63.6957 72 69C72 63.6957 74.1071 58.1771 77.8579 54.1421C81.6086 50.1071 86.6957 48 92 48H120C121.061 48 122.078 48.4214 122.828 49.1716C123.579 49.9217 124 50.9391 124 52V140C124 141.061 123.579 142.078 122.828 142.828C122.078 143.579 121.061 144 120 144H92C86.6957 144 81.6086 146.107 77.8579 150.142C74.1071 154.177 72 159.696 72 165C72 159.696 69.8929 154.177 66.1421 150.142C62.3914 146.107 57.3043 144 52 144H24Z" stroke="white" stroke-width="12" stroke-linecap="round" stroke-linejoin="round"/>
</svg>
