<svg xmlns="http://www.w3.org/2000/svg" viewBox="0 0 512 512">
  <rect width="512" height="512" rx="64" fill="#4c6ef5"/>
  <path d="M256 128V384" stroke="white" stroke-width="32" stroke-linecap="round" stroke-linejoin="round"/>
  <path d="M64 368C60.6863 368 57.5255 366.521 55.272 363.941C52.9135 361.474 51.4315 358.313 51.4315 354.99V157.01C51.4315 153.687 52.9135 150.526 55.272 148.059C57.5255 145.479 60.6863 144 64 144H138.667C152.812 144 166.377 149.619 176.377 159.618C186.378 169.617 192 183.179 192 197.321C192 183.179 197.622 169.617 207.623 159.618C217.623 149.619 231.188 144 245.333 144H320C323.314 144 326.474 145.479 328.728 148.059C331.086 150.526 332.569 153.687 332.569 157.01V354.99C332.569 358.313 331.086 361.474 328.728 363.941C326.474 366.521 323.314 368 320 368H245.333C231.188 368 217.623 373.619 207.623 383.618C197.622 393.617 192 407.179 192 421.321C192 407.179 186.378 393.617 176.377 383.618C166.377 373.619 152.812 368 138.667 368H64Z" stroke="white" stroke-width="32" stroke-linecap="round" stroke-linejoin="round"/>
</svg>
